<svg xmlns="http://www.w3.org/2000/svg" version="1.1" viewBox="0 0 256 256">
 <g>
  <rect transform="matrix(-.59224 .80576 .59224 .80576 0 0)" height="64.703" width="93.905" y="47.713" x="-46.304" fill="#d40055"/>
  <rect transform="matrix(.59224 .80576 -.59224 .80576 0 0)" height="64.703" width="93.905" y="-168.47" x="169.88" fill="#d40055"/>
  <rect ry="17" height="179.2" width="256" y="76.8" x="0" fill="#f06"/>
  <rect height="1" width="3.5" y="50.5" x="268.5" fill="#fff"/>
  <rect height="13.2" width="256" y="76.8" x="1.4211e-14" fill="#f06"/>
 </g>
 <g>
  <rect height="58.633" width="107.33" y="143.59" x="77.656" fill="none"/>
  <path d="m99.45 118.46c-10.789-0.16152-21.922 5.033-28.446 17.866-23.344 45.921 57.09 88.689 57.09 88.689s80.357-42.768 56.841-88.689c-14.02-27.376-48.693-14.675-56.527 5.3158-4.1316-10.621-16.73-22.999-28.958-23.182z" stroke="#f06" stroke-width="8.026" fill="#fff"/>
 </g>
</svg>
